<svg width="38" height="38" viewBox="0 0 38 38" fill="none" xmlns="http://www.w3.org/2000/svg">
<path d="M18.6676 18.2084H15.3901V12.9675H19.3009C21.2959 12.9675 22.4042 13.8542 22.4042 15.485C22.4042 17.2584 21.0901 18.2084 18.6676 18.2084ZM19.2534 19.9975H15.3901V25.7609H19.4434C21.9134 25.7609 23.2117 24.7634 23.2117 22.8634C23.2117 20.9634 21.8659 19.9975 19.2534 19.9975ZM34.8334 8.40752V29.5925C34.8334 32.4584 32.4584 34.8334 29.5926 34.8334H8.40758C5.54175 34.8334 3.16675 32.4584 3.16675 29.5925V8.40752C3.16675 5.54169 5.54175 3.16669 8.40758 3.16669H29.5926C32.4584 3.16669 34.8334 5.54169 34.8334 8.40752ZM25.3334 22.9584C25.3334 20.7734 23.8767 19.2059 21.6442 18.9209V18.8259C23.2276 18.5409 24.4784 16.9575 24.4784 15.2475C24.4784 12.7934 22.5784 11.1625 19.7917 11.1625H13.3476V27.5659H19.7442C23.2434 27.5659 25.3334 25.84 25.3334 22.9584Z" fill="white"/>
</svg>
