<svg width="38" height="38" viewBox="0 0 38 38" fill="none" xmlns="http://www.w3.org/2000/svg">
<path d="M5.2235 27.8603C5.9075 29.9693 7.98642 31.3152 10.2047 31.3152H10.2917C10.4953 32.3084 11.0354 33.201 11.821 33.842C12.6065 34.483 13.5893 34.8332 14.6032 34.8333C15.3267 34.8333 16.0028 34.6513 16.6013 34.3378C16.8511 34.2008 17.0589 33.9985 17.2026 33.7525C17.3462 33.5065 17.4202 33.2261 17.4167 32.9413V4.79276C17.4199 4.43002 17.2981 4.07724 17.0718 3.79378C16.8454 3.51032 16.5283 3.31347 16.1738 3.23634C15.3795 3.08206 14.5564 3.19391 13.8321 3.55459C12.6541 4.11826 11.9637 5.37701 11.9637 6.68643V6.77351C11.0822 6.59358 10.1666 6.68834 9.34057 7.04501C8.51452 7.40167 7.81773 8.00309 7.34417 8.76814C6.87061 9.53319 6.64306 10.4251 6.69222 11.3235C6.74138 12.2219 7.06488 13.0836 7.61908 13.7924C6.37788 13.9869 5.24705 14.6186 4.43063 15.5735C3.61421 16.5284 3.16596 17.7437 3.16675 19C3.16675 20.8652 4.13417 22.5008 5.594 23.4523C4.91317 24.6731 4.68992 26.2168 5.2235 27.8603ZM30.3811 13.7924C30.9353 13.0836 31.2588 12.2219 31.3079 11.3235C31.3571 10.4251 31.1296 9.53319 30.656 8.76814C30.1824 8.00309 29.4856 7.40167 28.6596 7.04501C27.8336 6.68834 26.918 6.59358 26.0364 6.77351V6.68643C26.0364 5.37859 25.3445 4.11826 24.1665 3.55459C23.4427 3.1938 22.6202 3.08194 21.8263 3.23634C21.472 3.31374 21.1551 3.51066 20.9288 3.79406C20.7025 4.07747 20.5805 4.43009 20.5834 4.79276V32.9397C20.5834 33.5176 20.8874 34.067 21.4004 34.3362C21.9989 34.6513 22.6734 34.8333 23.397 34.8333C24.4111 34.8331 25.394 34.4827 26.1796 33.8414C26.9652 33.2001 27.5052 32.3071 27.7084 31.3136H27.7971C30.0137 31.3136 32.0942 29.9678 32.7782 27.8588C33.3118 26.2153 33.0886 24.6715 32.4077 23.4508C33.1514 22.9703 33.763 22.3113 34.1866 21.5339C34.6103 20.7565 34.8327 19.8854 34.8334 19C34.8342 17.7437 34.386 16.5284 33.5695 15.5735C32.7531 14.6186 31.6223 13.9869 30.3811 13.7924Z" fill="white"/>
</svg>
