<svg width="38" height="38" viewBox="0 0 38 38" fill="none" xmlns="http://www.w3.org/2000/svg">
<path d="M34.8828 9.94532L34.9719 9.88595C34.7938 9.55939 34.5266 9.26251 34.2594 9.11407L19.9203 0.86095C19.6828 0.712512 19.3563 0.653137 19 0.653137C18.6437 0.653137 18.3172 0.7422 18.0797 0.86095L3.82969 9.14376C3.325 9.44064 2.96875 10.1828 2.96875 10.7469V27.2828C2.96875 27.6094 3.02812 27.9656 3.23594 28.2922L3.17656 28.3219C3.325 28.5594 3.53281 28.7672 3.74063 28.886L18.05 37.1688C18.2875 37.3172 18.6141 37.3766 18.9703 37.3766C19.3266 37.3766 19.6531 37.2875 19.8906 37.1688L34.1406 28.886C34.6453 28.5891 35.0016 27.8469 35.0016 27.2828V10.7172C35.0313 10.4797 35.0016 10.2125 34.8828 9.94532ZM19 26.2735C21.7016 26.2735 24.0766 24.7891 25.3234 22.5922L29.1531 24.8484C27.1344 28.3516 23.3344 30.7266 19 30.7266C12.5281 30.7266 7.27344 25.4719 7.27344 19C7.27344 12.5281 12.5281 7.27345 19 7.27345C23.3641 7.27345 27.1641 9.67814 29.1828 13.2109L25.3234 15.4375C24.0766 13.2109 21.7016 11.7266 19 11.7266C14.9922 11.7266 11.7266 14.9922 11.7266 19C11.7266 23.0078 14.9922 26.2735 19 26.2735Z" fill="white"/>
</svg>
