<svg width="38" height="38" viewBox="0 0 38 38" fill="none" xmlns="http://www.w3.org/2000/svg">
<path fill-rule="evenodd" clip-rule="evenodd" d="M13.7228 14.9103C13.1857 14.9103 12.6539 15.0161 12.1577 15.2216C11.6615 15.4271 11.2107 15.7284 10.8309 16.1081C10.4511 16.4879 10.1499 16.9388 9.94437 17.4349C9.73884 17.9311 9.63305 18.4629 9.63305 19C9.63305 19.5371 9.73884 20.0689 9.94437 20.5651C10.1499 21.0613 10.4511 21.5121 10.8309 21.8919C11.2107 22.2717 11.6615 22.5729 12.1577 22.7785C12.6539 22.984 13.1857 23.0898 13.7228 23.0898H17.8126V19.0824C17.8119 19.0275 17.8119 18.9726 17.8126 18.9177V14.9103H13.7228ZM17.8126 12.5353H13.7228C12.6379 12.5353 11.5975 12.1043 10.8304 11.3372C10.0632 10.5701 9.63226 9.52961 9.63226 8.44473C9.63226 7.35985 10.0632 6.3194 10.8304 5.55228C11.5975 4.78515 12.6379 4.35419 13.7228 4.35419H17.8126V12.5353ZM20.1876 4.35419V12.5353H24.2773C25.3482 12.5142 26.3682 12.074 27.1181 11.3091C27.8681 10.5443 28.2882 9.51588 28.2882 8.44473C28.2882 7.37358 27.8681 6.34515 27.1181 5.58032C26.3682 4.81548 25.3482 4.37526 24.2773 4.35419H20.1876ZM24.2773 14.9087C23.2038 14.9086 22.1733 15.3305 21.4081 16.0835C20.643 16.8365 20.2046 17.8601 20.1876 18.9335V19.0649C20.2007 19.8709 20.4516 20.6549 20.9089 21.3187C21.3662 21.9824 22.0094 22.4963 22.7578 22.7956C23.5061 23.095 24.3263 23.1666 25.1152 23.0013C25.9041 22.8361 26.6265 22.4414 27.1919 21.8669C27.7572 21.2924 28.1402 20.5636 28.2927 19.7722C28.4451 18.9807 28.3604 18.1618 28.049 17.4184C27.7376 16.6749 27.2134 16.0401 26.5424 15.5936C25.8713 15.1471 25.0833 14.9088 24.2773 14.9087ZM13.7228 25.4648C12.9135 25.4645 12.1224 25.7041 11.4493 26.1535C10.7763 26.6029 10.2517 27.2418 9.94177 27.9893C9.63187 28.7369 9.55062 29.5596 9.70831 30.3533C9.86599 31.1471 10.2555 31.8762 10.8276 32.4486C11.3998 33.0209 12.1288 33.4107 12.9225 33.5687C13.7161 33.7267 14.5389 33.6458 15.2865 33.3362C16.0342 33.0265 16.6733 32.5021 17.1229 31.8293C17.5726 31.1564 17.8126 30.3654 17.8126 29.5561V25.4648H13.7228Z" fill="white"/>
</svg>
