<svg width="38" height="38" viewBox="0 0 38 38" fill="none" xmlns="http://www.w3.org/2000/svg">
<path d="M4.11659 16.7675L13.2683 7.59999L15.9441 10.2917C15.5641 11.6375 16.1816 13.11 17.4166 13.8225V22.5942C16.4666 23.1325 15.8333 24.1617 15.8333 25.3333C15.8333 26.1732 16.1669 26.9786 16.7608 27.5725C17.3546 28.1664 18.1601 28.5 18.9999 28.5C19.8398 28.5 20.6452 28.1664 21.2391 27.5725C21.833 26.9786 22.1666 26.1732 22.1666 25.3333C22.1666 24.1617 21.5333 23.1325 20.5833 22.5942V14.8992L23.8608 18.2083C23.7499 18.4458 23.7499 18.715 23.7499 19C23.7499 19.8398 24.0836 20.6453 24.6774 21.2392C25.2713 21.833 26.0767 22.1667 26.9166 22.1667C27.7564 22.1667 28.5619 21.833 29.1558 21.2392C29.7496 20.6453 30.0833 19.8398 30.0833 19C30.0833 18.1601 29.7496 17.3547 29.1558 16.7608C28.5619 16.167 27.7564 15.8333 26.9166 15.8333C26.6316 15.8333 26.3624 15.8333 26.1249 15.9442L22.0558 11.875C22.2524 11.1416 22.1761 10.3619 21.8413 9.68047C21.5064 8.99908 20.9356 8.46236 20.2349 8.16999C19.5541 7.91665 18.8416 7.85332 18.2083 8.02749L15.5166 5.35165L16.7674 4.11665C18.0024 2.86582 19.9974 2.86582 21.2324 4.11665L33.8833 16.7675C35.1341 18.0025 35.1341 19.9975 33.8833 21.2325L21.2324 33.8833C19.9974 35.1342 18.0024 35.1342 16.7674 33.8833L4.11659 21.2325C2.86576 19.9975 2.86576 18.0025 4.11659 16.7675Z" fill="white"/>
</svg>
