<svg width="38" height="38" viewBox="0 0 38 38" fill="none" xmlns="http://www.w3.org/2000/svg">
<path d="M19.0001 3.16669C16.9208 3.16669 14.8619 3.57623 12.9409 4.37193C11.0199 5.16763 9.27449 6.3339 7.80422 7.80416C4.8349 10.7735 3.16675 14.8008 3.16675 19C3.16675 25.9984 7.71092 31.9359 13.9967 34.0417C14.7884 34.1684 15.0417 33.6775 15.0417 33.25V30.5742C10.6559 31.5242 9.72175 28.4525 9.72175 28.4525C8.99341 26.6159 7.96425 26.125 7.96425 26.125C6.52342 25.1434 8.07508 25.175 8.07508 25.175C9.65841 25.2859 10.4976 26.8059 10.4976 26.8059C11.8751 29.2125 14.2026 28.5 15.1051 28.12C15.2476 27.0909 15.6592 26.3942 16.1026 25.9984C12.5876 25.6025 8.89841 24.2409 8.89841 18.2084C8.89841 16.4509 9.50008 15.0417 10.5292 13.9175C10.3709 13.5217 9.81675 11.875 10.6876 9.73752C10.6876 9.73752 12.0176 9.31002 15.0417 11.3525C16.2926 11.0042 17.6542 10.83 19.0001 10.83C20.3459 10.83 21.7076 11.0042 22.9584 11.3525C25.9826 9.31002 27.3126 9.73752 27.3126 9.73752C28.1834 11.875 27.6292 13.5217 27.4709 13.9175C28.5001 15.0417 29.1017 16.4509 29.1017 18.2084C29.1017 24.2567 25.3967 25.5867 21.8659 25.9825C22.4359 26.4734 22.9584 27.4392 22.9584 28.9117V33.25C22.9584 33.6775 23.2117 34.1842 24.0192 34.0417C30.3051 31.92 34.8334 25.9984 34.8334 19C34.8334 16.9208 34.4239 14.8619 33.6282 12.9409C32.8325 11.0199 31.6662 9.27442 30.1959 7.80416C28.7257 6.3339 26.9802 5.16763 25.0592 4.37193C23.1382 3.57623 21.0793 3.16669 19.0001 3.16669Z" fill="white"/>
</svg>
