<svg width="38" height="38" viewBox="0 0 38 38" fill="none" xmlns="http://www.w3.org/2000/svg">
<path d="M17.1317 13.3427C15.9284 11.6248 15.4756 10.3787 15.3774 9.4715C15.284 8.6165 15.493 7.93566 15.9078 7.28175C16.3559 6.574 17.0288 5.91691 17.8838 5.1395C18.6834 4.41433 19.6841 3.55141 20.4694 2.5745L18.0026 0.592163C17.3439 1.41075 16.5332 2.09158 15.7574 2.79458C14.9119 3.5625 13.9382 4.47608 13.2352 5.58758C12.4973 6.75133 12.0477 8.13833 12.2297 9.81508C12.4071 11.4396 13.1607 13.1907 14.5382 15.1588L17.1317 13.3427ZM19.1109 8.54525C19.5606 7.46225 20.4742 6.37608 21.9292 5.13158L23.9876 7.53508C22.6718 8.664 22.2 9.36066 22.0322 9.76283C21.8675 10.1587 21.9767 10.5529 22.0876 10.9456C22.2206 11.4142 22.4407 12.1964 22.4264 13.0387C22.4074 14.1566 22.0242 15.3377 21.1091 16.7121L18.4744 14.9546C19.1426 13.9539 19.2534 13.3554 19.2597 12.9865C19.2677 12.5194 19.1457 12.2582 18.9478 11.4665C18.7578 10.7097 18.6169 9.72958 19.1109 8.54525ZM9.72333 15.8333C10.4675 15.3362 11.3858 15.0828 12.244 14.877L11.5046 11.7958C10.2173 12.1062 9.04883 12.5242 8.16058 13.0736C7.35308 13.5739 6.33341 14.4653 6.33341 15.8333C6.33341 16.9828 7.10291 17.9012 8.01966 18.5028C7.9506 18.7997 7.91606 19.1037 7.91675 19.4085C7.91675 20.9602 8.57858 22.2696 9.7265 23.2402C9.55708 23.7152 9.48108 24.244 9.50483 24.7728C8.27458 25.0119 7.07283 25.3634 6.069 25.8242C5.385 26.1377 4.7105 26.5382 4.18483 27.0544C3.656 27.5753 3.16675 28.3274 3.16675 29.2917C3.16675 29.9677 3.466 30.514 3.75891 30.8908C4.05816 31.274 4.44291 31.6017 4.84191 31.8788C5.64308 32.4346 6.71658 32.9381 7.94367 33.3608C10.4105 34.2127 13.7529 34.8333 17.4167 34.8333C22.6845 34.8333 26.3832 34.2253 28.8009 33.5952C29.7196 33.3616 30.6211 33.0648 31.4989 32.7069C31.8314 32.5676 32.1639 32.4203 32.4742 32.2367C32.4901 32.2272 30.8466 29.5212 30.8529 29.5165C29.9599 29.982 28.9719 30.2765 28.0029 30.5298C25.867 31.0872 22.4407 31.6667 17.4167 31.6667C14.0854 31.6667 11.0945 31.0998 8.97758 30.3683C8.13525 30.077 7.25492 29.7382 6.53767 29.1967C6.71975 29.0542 6.99683 28.8816 7.3895 28.7027C8.273 28.2973 9.48425 27.9648 10.7778 27.7669C11.1409 28.1522 11.5706 28.49 12.0667 28.7802C13.5946 29.6701 15.6957 30.0833 18.2084 30.0833C20.2826 30.0833 21.7836 29.8743 22.7969 29.6495C23.3606 29.526 23.9274 29.3851 24.4467 29.1302C24.4515 29.127 23.0518 26.2881 23.0518 26.2881C22.7447 26.3989 22.4317 26.4886 22.1129 26.5572C21.3387 26.7298 20.0704 26.9167 18.2084 26.9167C15.9712 26.9167 14.5097 26.5367 13.6627 26.0442C12.9882 25.6516 12.7301 25.2146 12.6778 24.7396C14.0522 25.1402 15.6782 25.3333 17.5165 25.3333C19.8329 25.3333 21.5033 25.1069 22.6275 24.8631C23.2387 24.7317 23.8546 24.5797 24.423 24.3152C24.4547 24.2994 23.0661 21.4542 23.0661 21.4542C22.7059 21.5891 22.3352 21.6939 21.9577 21.7677C21.0711 21.9592 19.6255 22.1667 17.5149 22.1667C14.9768 22.1667 13.2874 21.7487 12.2867 21.1802C11.541 20.7559 11.2132 20.2809 11.1151 19.7711C13.0784 20.2872 15.5563 20.5833 18.2084 20.5833C21.0853 20.5833 23.7533 20.235 25.7815 19.6365L24.8853 16.5997C23.2165 17.0921 20.8637 17.4167 18.2084 17.4167C15.4787 17.4167 13.0705 17.0747 11.3969 16.5585C10.6052 16.3162 10.0574 16.0582 9.72492 15.8333M27.8509 17.0145C29.7715 16.8403 30.4792 17.3122 30.7072 17.556C30.9432 17.8093 31.0255 18.202 30.9226 18.6168C30.7389 19.3515 30.2212 20.064 29.382 20.7195C28.5444 21.3734 27.482 21.8912 26.4164 22.2474L27.4171 25.251C28.7281 24.814 30.1372 24.1458 31.3295 23.2164C32.517 22.2886 33.5842 21.0235 33.9942 19.3847C34.2872 18.2131 34.1716 16.6282 33.0221 15.3947C31.8663 14.1566 29.9995 13.6388 27.5643 13.8605L27.8509 17.0145Z" fill="white"/>
</svg>
