<svg width="38" height="38" viewBox="0 0 38 38" fill="none" xmlns="http://www.w3.org/2000/svg">
<path d="M9.5 4.75C8.24022 4.75 7.03204 5.25045 6.14124 6.14124C5.25045 7.03204 4.75 8.24022 4.75 9.5V28.5C4.75 29.7598 5.25045 30.968 6.14124 31.8588C7.03204 32.7496 8.24022 33.25 9.5 33.25H28.5C29.7598 33.25 30.968 32.7496 31.8588 31.8588C32.7496 30.968 33.25 29.7598 33.25 28.5V9.5C33.25 8.24022 32.7496 7.03204 31.8588 6.14124C30.968 5.25045 29.7598 4.75 28.5 4.75H9.5ZM21.1122 25.4204C22.2522 26.3388 23.3901 26.7916 24.5258 26.7789C25.2225 26.7789 25.7566 26.6512 26.1282 26.3957C26.3012 26.2835 26.4419 26.128 26.5366 25.9448C26.6313 25.7616 26.6766 25.5568 26.6681 25.3508C26.6705 25.126 26.6235 24.9034 26.5305 24.6988C26.4375 24.4941 26.3007 24.3124 26.1298 24.1664C25.7582 23.8424 25.0552 23.5173 24.0207 23.1911C22.7784 22.8322 21.8204 22.3678 21.147 21.7978C20.4862 21.2278 20.1495 20.4324 20.1368 19.4117C20.1368 18.4479 20.5548 17.641 21.3908 16.9908C22.2036 16.3405 23.2433 16.0154 24.51 16.0154C26.2749 16.0154 27.6909 16.445 28.7581 17.3043L27.5389 19.2027C27.0999 18.8613 26.5963 18.6125 26.0585 18.4712C25.5752 18.3092 25.0702 18.2212 24.5607 18.2099C23.959 18.2099 23.4771 18.3202 23.1151 18.5408C22.7562 18.7625 22.5768 19.0528 22.5768 19.4117C22.5768 19.8064 22.7968 20.1432 23.237 20.4218C23.6803 20.6899 24.4351 20.986 25.5012 21.3101C26.79 21.6932 27.7073 22.2041 28.253 22.8428C28.7987 23.4814 29.0716 24.2941 29.0716 25.2811C29.0716 26.2913 28.6826 27.1621 27.9047 27.8936C27.1383 28.6135 26.0237 28.9908 24.5607 29.0257C22.6448 29.0257 21.0425 28.4509 19.7537 27.3014L21.1122 25.4204ZM12.3563 26.4306C12.7279 26.6628 13.1749 26.7789 13.6974 26.7789C14.2431 26.7789 14.696 26.6222 15.0559 26.3087C15.4148 25.9836 15.5948 25.4204 15.5958 24.6193V16.2244H17.9471V25.0721C17.9123 26.4422 17.5175 27.4291 16.7628 28.0329C16.3498 28.382 15.8697 28.6429 15.352 28.7992C14.872 28.9454 14.3734 29.0217 13.8716 29.0257C13.0007 29.0257 12.2286 28.8747 11.5552 28.5728C10.8353 28.2488 10.2315 27.674 9.74383 26.8486L11.381 25.5075C11.6818 25.9139 12.0069 26.2216 12.3563 26.4306Z" fill="white"/>
</svg>
