<svg width="38" height="38" viewBox="0 0 38 38" fill="none" xmlns="http://www.w3.org/2000/svg">
<path d="M20.4043 2.15652C19.9786 1.90622 19.4938 1.77423 18.9999 1.77423C18.5061 1.77423 18.0212 1.90622 17.5955 2.15652L5.32467 9.37336C4.9085 9.61805 4.56349 9.96724 4.32382 10.3863C4.08415 10.8054 3.95813 11.2798 3.95825 11.7626V26.2374C3.95825 27.2191 4.47759 28.1279 5.32467 28.6251L9.47775 31.0682C11.5883 32.3127 14.2499 30.7895 14.2499 28.3417V12.2661H11.0833V28.3401L7.12492 26.011V11.989L18.9999 5.00336L30.8749 11.989V26.011L18.9999 32.9967L16.2006 31.35L14.5951 34.0781L17.5955 35.8435C18.0212 36.0938 18.5061 36.2258 18.9999 36.2258C19.4938 36.2258 19.9786 36.0938 20.4043 35.8435L32.6752 28.6251C33.0911 28.3805 33.436 28.0316 33.6756 27.6128C33.9153 27.1941 34.0414 26.7199 34.0416 26.2374V11.7626C34.0414 11.2801 33.9153 10.806 33.6756 10.3872C33.436 9.96844 33.0911 9.6195 32.6752 9.37494L20.4043 2.15652ZM22.1666 11.875C20.0085 11.875 18.479 12.4308 17.4958 13.4109C16.7533 14.1493 16.3337 15.1519 16.3288 16.1991C16.3288 17.0779 16.5774 17.8743 17.092 18.5329C17.5876 19.1663 18.2399 19.5605 18.8653 19.8154C20.0053 20.2857 21.4303 20.4393 22.5767 20.5612L22.7144 20.577C24.0302 20.7195 25.0166 20.8414 25.6911 21.1233C25.9967 21.2499 26.1218 21.3671 26.174 21.4352C26.2073 21.4795 26.2722 21.5777 26.2722 21.8469C26.2722 22.2649 26.1297 22.534 25.6816 22.7889C25.1322 23.1009 24.1616 23.3384 22.7002 23.3384C21.2514 23.3384 20.2413 23.0692 19.6633 22.6702C19.2153 22.3599 18.8843 21.8833 18.9714 20.8494L15.8158 20.5849C15.6448 22.6259 16.3843 24.2519 17.8615 25.2748C19.2089 26.2089 20.9807 26.505 22.7002 26.505C24.4054 26.505 26.0125 26.2438 27.2491 25.5392C28.5886 24.7792 29.4388 23.5094 29.4388 21.8469C29.4388 20.9649 29.1934 20.1669 28.6836 19.5035C28.1928 18.8639 27.5404 18.4649 26.9134 18.202C25.7608 17.7191 24.3168 17.5639 23.1641 17.4404L23.0533 17.4278C21.7343 17.2853 20.7479 17.1665 20.0687 16.8879C19.7615 16.7612 19.6364 16.6472 19.5889 16.5839C19.5573 16.5459 19.4955 16.4572 19.4955 16.1991C19.4955 16.0772 19.5319 15.8524 19.733 15.6529C19.9262 15.4597 20.5231 15.0417 22.1666 15.0417C23.7341 15.0417 24.6477 15.2079 25.1702 15.5167C25.5106 15.7194 25.8795 16.0914 25.9302 17.3106L29.0937 17.1839C29.0145 15.2111 28.2925 13.6879 26.7852 12.7949C25.4599 12.0064 23.7658 11.875 22.1666 11.875Z" fill="white"/>
</svg>
