<svg width="38" height="38" viewBox="0 0 38 38" fill="none" xmlns="http://www.w3.org/2000/svg">
<g clip-path="url(#clip0_34_202)">
<path fill-rule="evenodd" clip-rule="evenodd" d="M28.405 3.8538L28.7058 4.03905L31.8408 6.12905C32.2374 6.39367 32.5691 6.74439 32.8111 7.15508C33.0532 7.56576 33.1994 8.0258 33.2389 8.50089L33.25 8.76372V28.6171C33.2499 29.3724 32.9799 30.1028 32.4887 30.6765C31.9974 31.2503 31.3173 31.6295 30.571 31.7458L30.3256 31.7743L12.0713 33.1787C11.5854 33.2161 11.0975 33.1408 10.6455 32.9587C10.1934 32.7766 9.78951 32.4927 9.46517 32.129L9.29575 31.9216L5.7 27.1272C5.15353 26.3984 4.82816 25.5278 4.76267 24.6192L4.75 24.2772V7.79947C4.75005 7.04417 5.02007 6.31377 5.51132 5.74006C6.00258 5.16635 6.68271 4.78712 7.429 4.6708L7.67442 4.6423L25.7054 3.2553C26.6442 3.18299 27.5833 3.39131 28.4034 3.8538H28.405ZM30.0833 11.21L12.6667 12.5495V29.9566L30.0833 28.6171V11.21ZM25.3333 13.4583C25.7533 13.4583 26.156 13.6251 26.4529 13.9221C26.7499 14.219 26.9167 14.6217 26.9167 15.0416V26.125C26.9167 26.5449 26.7499 26.9476 26.4529 27.2446C26.156 27.5415 25.7533 27.7083 25.3333 27.7083H24.5417C24.2712 27.7084 24.0051 27.6391 23.769 27.5072C23.5328 27.3753 23.3344 27.185 23.1927 26.9546L19 20.14V26.9166C19 27.3366 18.8332 27.7393 18.5363 28.0362C18.2393 28.3332 17.8366 28.5 17.4167 28.5C16.9967 28.5 16.594 28.3332 16.2971 28.0362C16.0001 27.7393 15.8333 27.3366 15.8333 26.9166V15.8333C15.8333 15.4134 16.0001 15.0107 16.2971 14.7137C16.594 14.4168 16.9967 14.25 17.4167 14.25H18.2083C18.4788 14.2499 18.7449 14.3191 18.981 14.4511C19.2172 14.583 19.4156 14.7732 19.5573 15.0036L23.75 21.8167V15.0416C23.75 14.6217 23.9168 14.219 24.2137 13.9221C24.5107 13.6251 24.9134 13.4583 25.3333 13.4583ZM25.9477 6.41247L9.88792 7.64747L11.6882 9.44772L29.1017 8.1098L26.9483 6.67372C26.6534 6.47708 26.3011 6.38509 25.9477 6.41247Z" fill="white"/>
</g>
<defs>
<clipPath id="clip0_34_202">
<rect width="38" height="38" fill="white"/>
</clipPath>
</defs>
</svg>
