<svg width="38" height="38" viewBox="0 0 38 38" fill="none" xmlns="http://www.w3.org/2000/svg">
<path d="M19.0001 16.0075C20.6309 16.0075 21.9609 17.3375 21.9609 19C21.9609 20.5833 20.6309 21.9291 19.0001 21.9291C17.3692 21.9291 16.0392 20.5833 16.0392 19C16.0392 17.3375 17.3692 16.0075 19.0001 16.0075ZM11.6692 31.6666C12.6667 32.2683 14.8517 31.35 17.3692 28.975C16.5459 28.0408 15.7384 27.0275 14.9784 25.9666C13.7026 25.8437 12.4342 25.6534 11.1784 25.3966C10.3709 28.785 10.6717 31.1125 11.6692 31.6666ZM12.7934 22.5783L12.3342 21.7708C12.1601 22.23 11.9859 22.6891 11.8751 23.1325C12.3026 23.2275 12.7776 23.3066 13.2684 23.3858L12.7934 22.5783ZM23.1484 21.375L24.4309 19L23.1484 16.625C22.6734 15.7858 22.1667 15.0416 21.7076 14.2975C20.8526 14.25 19.9501 14.25 19.0001 14.25C18.0501 14.25 17.1476 14.25 16.2926 14.2975C15.8334 15.0416 15.3267 15.7858 14.8517 16.625L13.5692 19L14.8517 21.375C15.3267 22.2141 15.8334 22.9583 16.2926 23.7025C17.1476 23.75 18.0501 23.75 19.0001 23.75C19.9501 23.75 20.8526 23.75 21.7076 23.7025C22.1667 22.9583 22.6734 22.2141 23.1484 21.375ZM19.0001 10.735C18.6992 11.0833 18.3826 11.4475 18.0659 11.875H19.9342C19.6176 11.4475 19.3009 11.0833 19.0001 10.735ZM19.0001 27.265C19.3009 26.9166 19.6176 26.5525 19.9342 26.125H18.0659C18.3826 26.5525 18.6992 26.9166 19.0001 27.265ZM26.3151 6.33331C25.3334 5.73165 23.1484 6.64998 20.6309 9.02498C21.4542 9.95915 22.2617 10.9725 23.0217 12.0333C24.3201 12.16 25.6026 12.35 26.8217 12.6033C27.6292 9.21498 27.3284 6.88748 26.3151 6.33331ZM25.2067 15.4216L25.6659 16.2291C25.8401 15.77 26.0142 15.3108 26.1251 14.8675C25.6976 14.7725 25.2226 14.6933 24.7317 14.6141L25.2067 15.4216ZM27.5026 4.25915C29.8301 5.58915 30.0834 9.08831 29.1017 13.1733C33.1234 14.3608 36.0209 16.3241 36.0209 19C36.0209 21.6758 33.1234 23.6391 29.1017 24.8266C30.0834 28.9116 29.8301 32.4108 27.5026 33.7408C25.1909 35.0708 22.0401 33.5508 19.0001 30.6533C15.9601 33.5508 12.8092 35.0708 10.4817 33.7408C8.17008 32.4108 7.91675 28.9116 8.89841 24.8266C4.87675 23.6391 1.97925 21.6758 1.97925 19C1.97925 16.3241 4.87675 14.3608 8.89841 13.1733C7.91675 9.08831 8.17008 5.58915 10.4817 4.25915C12.8092 2.92915 15.9601 4.44915 19.0001 7.34665C22.0401 4.44915 25.1909 2.92915 27.5026 4.25915ZM27.0434 19C27.5817 20.1875 28.0567 21.375 28.4526 22.5783C31.7776 21.5808 33.6459 20.1558 33.6459 19C33.6459 17.8441 31.7776 16.4191 28.4526 15.4216C28.0567 16.625 27.5817 17.8125 27.0434 19ZM10.9567 19C10.4184 17.8125 9.94342 16.625 9.54758 15.4216C6.22258 16.4191 4.35425 17.8441 4.35425 19C4.35425 20.1558 6.22258 21.5808 9.54758 22.5783C9.94342 21.375 10.4184 20.1875 10.9567 19ZM25.2067 22.5783L24.7317 23.3858C25.2226 23.3066 25.6976 23.2275 26.1251 23.1325C26.0142 22.6891 25.8401 22.23 25.6659 21.7708L25.2067 22.5783ZM20.6309 28.975C23.1484 31.35 25.3334 32.2683 26.3151 31.6666C27.3284 31.1125 27.6292 28.785 26.8217 25.3966C25.6026 25.65 24.3201 25.84 23.0217 25.9666C22.2617 27.0275 21.4542 28.0408 20.6309 28.975ZM12.7934 15.4216L13.2684 14.6141C12.7776 14.6933 12.3026 14.7725 11.8751 14.8675C11.9859 15.3108 12.1601 15.77 12.3342 16.2291L12.7934 15.4216ZM17.3692 9.02498C14.8517 6.64998 12.6667 5.73165 11.6692 6.33331C10.6717 6.88748 10.3709 9.21498 11.1784 12.6033C12.4342 12.3466 13.7026 12.1563 14.9784 12.0333C15.7384 10.9725 16.5459 9.95915 17.3692 9.02498Z" fill="white"/>
</svg>
