<svg width="38" height="38" viewBox="0 0 38 38" fill="none" xmlns="http://www.w3.org/2000/svg">
<path d="M19.0001 3.16669C21.0793 3.16669 23.1382 3.57623 25.0592 4.37193C26.9802 5.16763 28.7257 6.3339 30.1959 7.80416C31.6662 9.27442 32.8325 11.0199 33.6282 12.9409C34.4239 14.8619 34.8334 16.9208 34.8334 19C34.8334 23.1993 33.1653 27.2266 30.1959 30.1959C27.2266 33.1652 23.1993 34.8334 19.0001 34.8334C16.9208 34.8334 14.8619 34.4238 12.9409 33.6281C11.0199 32.8324 9.27449 31.6661 7.80422 30.1959C4.8349 27.2266 3.16675 23.1993 3.16675 19C3.16675 14.8008 4.8349 10.7735 7.80422 7.80416C10.7736 4.83484 14.8008 3.16669 19.0001 3.16669ZM15.8334 24.2725C16.0867 25.1275 16.0551 25.9192 15.8334 26.6475C15.8334 26.7267 15.7701 26.8059 15.7384 26.9167C15.7067 26.9167 15.6751 27.0275 15.6276 27.1067C15.4534 27.4867 15.2001 27.8509 14.8992 28.1675C13.9809 29.1809 12.6667 29.5609 12.1442 29.2442C11.5426 28.8959 11.8751 27.4709 12.9201 26.3467C14.0601 25.1434 15.7067 24.3517 15.7067 24.3517L15.8334 24.2725ZM28.9276 9.94335C28.2151 7.12502 23.5442 6.20669 19.1426 7.77419C16.5142 8.70835 13.6642 10.165 11.6217 12.0809C9.19925 14.3609 8.80341 16.34 8.96175 17.1634C9.50008 20.0767 13.5217 21.9925 15.1684 23.4017V23.4175C14.6934 23.655 11.1467 25.4442 10.2917 27.2809C9.43675 29.2125 10.4501 30.6059 11.0834 30.7959C13.2051 31.3659 15.3426 30.3367 16.4826 28.6109C17.5909 26.9642 17.5117 24.8267 17.0209 23.75C17.6859 23.5917 18.4617 23.5125 19.4434 23.6234C22.2301 23.9559 22.7684 25.6817 22.6576 26.41C22.5626 27.1384 21.9767 27.5342 21.7867 27.6609C21.5967 27.7717 21.5334 27.8192 21.5492 27.9142C21.5651 28.0409 21.6601 28.0409 21.8184 28.0092C22.0559 27.9617 23.2909 27.4234 23.3384 26.0775C23.4017 24.3675 21.7709 22.4675 18.8892 22.515C17.7017 22.5467 16.9576 22.6575 16.4192 22.8634L16.2926 22.7209C14.5034 20.8209 11.2101 19.475 11.3526 16.91C11.4001 15.9759 11.7167 13.5375 17.6859 10.5609C22.5626 8.12252 26.4734 8.78752 27.1542 10.2917C28.1201 12.3975 25.0642 16.34 19.9976 16.91C18.0659 17.1317 17.0367 16.3717 16.7834 16.1025C16.5142 15.8334 16.4826 15.7859 16.3876 15.8334C16.2134 15.9442 16.3242 16.1975 16.3876 16.3559C16.5301 16.7517 17.1634 17.4167 18.2084 17.7967C19.1426 18.0975 21.4226 18.2717 24.1617 17.2109C27.2334 16.0234 29.6401 12.7142 28.9276 9.94335Z" fill="white"/>
</svg>
