<svg width="38" height="38" viewBox="0 0 38 38" fill="none" xmlns="http://www.w3.org/2000/svg">
<path d="M19.0001 9.5C14.7726 9.5 12.1442 11.6058 11.0834 15.8333C12.6667 13.7275 14.5192 12.9358 16.6251 13.4583C17.8284 13.7592 18.6992 14.63 19.6492 15.5958C21.2009 17.1792 22.9584 19 26.9167 19C31.1442 19 33.7726 16.8942 34.8334 12.6667C33.2501 14.7725 31.3976 15.5642 29.2917 15.0417C28.0884 14.7408 27.2334 13.87 26.2676 12.9042C24.7159 11.3208 22.9584 9.5 19.0001 9.5ZM11.0834 19C6.85591 19 4.22758 21.1058 3.16675 25.3333C4.75008 23.2275 6.60258 22.4358 8.70841 22.9583C9.91175 23.2592 10.7667 24.13 11.7326 25.0958C13.2842 26.6792 15.0417 28.5 19.0001 28.5C23.2276 28.5 25.8559 26.3942 26.9167 22.1667C25.3334 24.2725 23.4809 25.0642 21.3751 24.5417C20.1717 24.2408 19.3167 23.37 18.3509 22.4042C16.7992 20.8208 15.0417 19 11.0834 19Z" fill="white"/>
</svg>
