<svg width="38" height="38" viewBox="0 0 38 38" fill="none" xmlns="http://www.w3.org/2000/svg">
<path d="M14.2499 7.91663C15.9296 7.91663 17.5405 8.58389 18.7283 9.77162C19.916 10.9593 20.5833 12.5703 20.5833 14.25C20.5833 15.9297 19.916 17.5406 18.7283 18.7283C17.5405 19.916 15.9296 20.5833 14.2499 20.5833C12.5702 20.5833 10.9593 19.916 9.77158 18.7283C8.58385 17.5406 7.91659 15.9297 7.91659 14.25C7.91659 12.5703 8.58385 10.9593 9.77158 9.77162C10.9593 8.58389 12.5702 7.91663 14.2499 7.91663ZM14.2499 23.75C18.4774 23.75 26.9166 25.8716 26.9166 30.0833V33.25H1.58325V30.0833C1.58325 25.8716 10.0224 23.75 14.2499 23.75ZM26.5366 8.48663C29.7349 11.97 29.7349 16.7991 26.5366 19.9975L23.8766 17.3216C25.2066 15.4533 25.2066 13.0308 23.8766 11.1625L26.5366 8.48663ZM31.7774 3.16663C37.9999 9.57913 37.9524 19.1741 31.7774 25.3333L29.1966 22.7525C33.5824 17.7175 33.5824 10.5291 29.1966 5.74746L31.7774 3.16663Z" fill="white"/>
</svg>
