<svg width="590" height="590" viewBox="0 0 590 590" fill="none" xmlns="http://www.w3.org/2000/svg">
<rect width="590" height="590" rx="100" fill="#576EF2"/>
<path d="M295 504.45C179.324 504.45 85.5498 410.794 85.5498 295.265C85.5498 190.099 163.259 103.071 264.455 88.3014C274.488 86.4955 284.82 85.5498 295.374 85.5498C307.137 85.5498 318.624 86.7269 329.728 88.9589C428.874 105.485 504.45 191.553 504.45 295.265C504.45 410.794 410.676 504.45 295 504.45ZM295.053 114.418C279.774 114.418 267.389 126.788 267.389 142.047C267.389 157.306 279.774 169.676 295.053 169.676C310.332 169.676 322.717 157.306 322.717 142.047C322.717 126.788 310.332 114.418 295.053 114.418ZM357.438 121.058C364.209 132.125 368.115 145.131 368.115 159.05C368.115 199.349 335.404 232.019 295.053 232.019C254.702 232.019 221.991 199.349 221.991 159.05C221.991 145.131 225.756 132.125 232.668 121.058C210.567 139.116 196.455 166.562 196.455 197.305C196.455 251.691 240.599 295.779 295.053 295.779C349.507 295.779 393.651 251.691 393.651 197.305C393.651 166.562 379.539 139.116 357.438 121.058ZM451.959 242.4C450.265 192.027 424.758 157.299 388.944 136.999C412.119 160.684 426.423 193.067 426.423 228.8C426.423 301.362 367.525 360.185 294.871 360.185C222.218 360.185 163.32 301.362 163.32 228.8C163.32 197.134 174.54 168.088 193.222 145.403C160.863 166.92 138.584 199.59 137.784 242.4C136.164 329.032 208.114 399.288 294.871 399.288C381.628 399.288 454.87 328.998 451.959 242.4ZM295.374 431.502C199.721 431.502 122.178 354.058 122.178 258.526C122.178 251.582 122.6 244.738 123.397 238.009C117.276 256.173 113.956 275.623 113.956 295.848C113.956 395.938 195.197 477.077 295.414 477.077C395.631 477.077 476.873 395.938 476.873 295.848C476.873 275.484 473.509 255.905 467.308 237.634C468.134 244.484 468.569 251.454 468.569 258.526C468.569 354.058 391.027 431.502 295.374 431.502Z" fill="white"/>
</svg>
