<svg width="100" height="100" viewBox="0 0 100 100" fill="none" xmlns="http://www.w3.org/2000/svg">
<rect width="100" height="100" rx="30" fill="#191919"/>
<g clip-path="url(#clip0_4_137)">
<path d="M58.2966 20.4297C58.8977 20.5979 59.4597 20.8828 59.9505 21.2683C60.4414 21.6538 60.8515 22.1323 61.1573 22.6763C61.4632 23.2204 61.6588 23.8194 61.733 24.4391C61.8073 25.0588 61.7586 25.6871 61.5899 26.288L47.5584 76.2802C47.2183 77.4933 46.4101 78.5217 45.3118 79.139C44.2134 79.7563 42.9148 79.9121 41.7017 79.5719C40.4885 79.2318 39.4601 78.4236 38.8428 77.3253C38.2255 76.2269 38.0698 74.9283 38.4099 73.7152L52.4414 23.7167C52.6099 23.1159 52.8951 22.5542 53.2808 22.0637C53.6664 21.5732 54.1449 21.1635 54.689 20.8579C55.233 20.5524 55.8319 20.357 56.4514 20.283C57.071 20.209 57.6991 20.2577 58.2998 20.4265L58.2966 20.4297ZM35.9399 33.2072C36.8294 34.0978 37.3291 35.3051 37.3291 36.5638C37.3291 37.8226 36.8294 39.0299 35.9399 39.9205L25.8699 50L35.9462 60.0763C36.8369 60.9674 37.3371 62.1758 37.3368 63.4357C37.3365 64.6956 36.8357 65.9038 35.9447 66.7944C35.0536 67.6851 33.8452 68.1853 32.5853 68.185C31.3254 68.1847 30.1172 67.6839 29.2266 66.7928L15.7904 53.3567C14.9009 52.466 14.4012 51.2588 14.4012 50C14.4012 48.7413 14.9009 47.534 15.7904 46.6433L29.2234 33.2072C29.6645 32.7658 30.1883 32.4156 30.7648 32.1767C31.3413 31.9378 31.9592 31.8149 32.5832 31.8149C33.2073 31.8149 33.8252 31.9378 34.4017 32.1767C34.9782 32.4156 35.4988 32.7658 35.9399 33.2072ZM64.0599 39.9205C63.5932 39.4857 63.2189 38.9612 62.9593 38.3786C62.6997 37.7959 62.5601 37.1669 62.5488 36.5292C62.5376 35.8914 62.6549 35.2579 62.8938 34.6664C63.1327 34.0749 63.4883 33.5377 63.9394 33.0866C64.3904 32.6356 64.9277 32.28 65.5191 32.0411C66.1106 31.8022 66.7441 31.6848 67.3819 31.6961C68.0197 31.7074 68.6487 31.847 69.2313 32.1066C69.814 32.3662 70.3384 32.7405 70.7733 33.2072L84.2094 46.6402C85.0999 47.5309 85.6002 48.7389 85.6002 49.9984C85.6002 51.258 85.0999 52.4659 84.2094 53.3567L70.7764 66.7928C70.3354 67.2341 69.8118 67.5841 69.2355 67.823C68.6592 68.0618 68.0415 68.1848 67.4177 68.185C66.7939 68.1851 66.1761 68.0624 65.5997 67.8238C65.0233 67.5852 64.4996 67.2354 64.0583 66.7944C63.6171 66.3534 63.2671 65.8298 63.0282 65.2535C62.7894 64.6772 62.6663 64.0595 62.6662 63.4357C62.666 62.8119 62.7888 62.1941 63.0274 61.6177C63.266 61.0413 63.6157 60.5176 64.0568 60.0763L74.1331 50L64.0599 39.9205Z" fill="#E9F1FF"/>
</g>
<defs>
<clipPath id="clip0_4_137">
<rect width="76" height="76" fill="white" transform="translate(12 12)"/>
</clipPath>
</defs>
</svg>
